<svg id="visual" viewBox="0 0 900 450" width="900" height="450" xmlns="http://www.w3.org/2000/svg" xmlns:xlink="http://www.w3.org/1999/xlink" version="1.1"><rect x="0" y="0" width="900" height="450" fill="#8ec3ec"></rect><path d="M0 282L18.8 289.3C37.7 296.7 75.3 311.3 112.8 315.5C150.3 319.7 187.7 313.3 225.2 308.2C262.7 303 300.3 299 337.8 294.5C375.3 290 412.7 285 450.2 289.8C487.7 294.7 525.3 309.3 562.8 312.5C600.3 315.7 637.7 307.3 675.2 303C712.7 298.7 750.3 298.3 787.8 304.3C825.3 310.3 862.7 322.7 881.3 328.8L900 335L900 451L881.3 451C862.7 451 825.3 451 787.8 451C750.3 451 712.7 451 675.2 451C637.7 451 600.3 451 562.8 451C525.3 451 487.7 451 450.2 451C412.7 451 375.3 451 337.8 451C300.3 451 262.7 451 225.2 451C187.7 451 150.3 451 112.8 451C75.3 451 37.7 451 18.8 451L0 451Z" fill="#ffffff"></path><path d="M0 354L18.8 348.3C37.7 342.7 75.3 331.3 112.8 325.3C150.3 319.3 187.7 318.7 225.2 315.3C262.7 312 300.3 306 337.8 311.3C375.3 316.7 412.7 333.3 450.2 334.5C487.7 335.7 525.3 321.3 562.8 313.2C600.3 305 637.7 303 675.2 309.3C712.7 315.7 750.3 330.3 787.8 337.8C825.3 345.3 862.7 345.7 881.3 345.8L900 346L900 451L881.3 451C862.7 451 825.3 451 787.8 451C750.3 451 712.7 451 675.2 451C637.7 451 600.3 451 562.8 451C525.3 451 487.7 451 450.2 451C412.7 451 375.3 451 337.8 451C300.3 451 262.7 451 225.2 451C187.7 451 150.3 451 112.8 451C75.3 451 37.7 451 18.8 451L0 451Z" fill="#b9bcc2"></path><path d="M0 375L18.8 370.7C37.7 366.3 75.3 357.7 112.8 358.5C150.3 359.3 187.7 369.7 225.2 366.7C262.7 363.7 300.3 347.3 337.8 343.5C375.3 339.7 412.7 348.3 450.2 350.2C487.7 352 525.3 347 562.8 343.2C600.3 339.3 637.7 336.7 675.2 335C712.7 333.3 750.3 332.7 787.8 336.5C825.3 340.3 862.7 348.7 881.3 352.8L900 357L900 451L881.3 451C862.7 451 825.3 451 787.8 451C750.3 451 712.7 451 675.2 451C637.7 451 600.3 451 562.8 451C525.3 451 487.7 451 450.2 451C412.7 451 375.3 451 337.8 451C300.3 451 262.7 451 225.2 451C187.7 451 150.3 451 112.8 451C75.3 451 37.7 451 18.8 451L0 451Z" fill="#777d88"></path><path d="M0 398L18.8 393.7C37.7 389.3 75.3 380.7 112.8 380.7C150.3 380.7 187.7 389.3 225.2 391.3C262.7 393.3 300.3 388.7 337.8 387.8C375.3 387 412.7 390 450.2 392.8C487.7 395.7 525.3 398.3 562.8 396C600.3 393.7 637.7 386.3 675.2 384.8C712.7 383.3 750.3 387.7 787.8 390.7C825.3 393.7 862.7 395.3 881.3 396.2L900 397L900 451L881.3 451C862.7 451 825.3 451 787.8 451C750.3 451 712.7 451 675.2 451C637.7 451 600.3 451 562.8 451C525.3 451 487.7 451 450.2 451C412.7 451 375.3 451 337.8 451C300.3 451 262.7 451 225.2 451C187.7 451 150.3 451 112.8 451C75.3 451 37.7 451 18.8 451L0 451Z" fill="#3a4452"></path><path d="M0 415L18.8 411.7C37.7 408.3 75.3 401.7 112.8 398.7C150.3 395.7 187.7 396.3 225.2 400.5C262.7 404.7 300.3 412.3 337.8 413.3C375.3 414.3 412.7 408.7 450.2 408.5C487.7 408.3 525.3 413.7 562.8 417.3C600.3 421 637.7 423 675.2 420.7C712.7 418.3 750.3 411.7 787.8 407.5C825.3 403.3 862.7 401.7 881.3 400.8L900 400L900 451L881.3 451C862.7 451 825.3 451 787.8 451C750.3 451 712.7 451 675.2 451C637.7 451 600.3 451 562.8 451C525.3 451 487.7 451 450.2 451C412.7 451 375.3 451 337.8 451C300.3 451 262.7 451 225.2 451C187.7 451 150.3 451 112.8 451C75.3 451 37.7 451 18.8 451L0 451Z" fill="#001122"></path></svg>