<svg id="visual" viewBox="0 0 900 600" width="900" height="600" xmlns="http://www.w3.org/2000/svg" xmlns:xlink="http://www.w3.org/1999/xlink" version="1.1"><rect x="0" y="0" width="900" height="600" fill="#001220"></rect><path d="M0 284L10 308.2C20 332.3 40 380.7 60 402.5C80 424.3 100 419.7 120 407.5C140 395.3 160 375.7 180 369C200 362.3 220 368.7 240 370.8C260 373 280 371 300 369.5C320 368 340 367 360 354.5C380 342 400 318 420 301.8C440 285.7 460 277.3 480 291.5C500 305.7 520 342.3 540 347.5C560 352.7 580 326.3 600 327.2C620 328 640 356 660 373.5C680 391 700 398 720 379.3C740 360.7 760 316.3 780 298.2C800 280 820 288 840 294.8C860 301.7 880 307.3 890 310.2L900 313L900 601L890 601C880 601 860 601 840 601C820 601 800 601 780 601C760 601 740 601 720 601C700 601 680 601 660 601C640 601 620 601 600 601C580 601 560 601 540 601C520 601 500 601 480 601C460 601 440 601 420 601C400 601 380 601 360 601C340 601 320 601 300 601C280 601 260 601 240 601C220 601 200 601 180 601C160 601 140 601 120 601C100 601 80 601 60 601C40 601 20 601 10 601L0 601Z" fill="#fa7268"></path><path d="M0 474L10 469C20 464 40 454 60 446.5C80 439 100 434 120 421.2C140 408.3 160 387.7 180 397C200 406.3 220 445.7 240 446.7C260 447.7 280 410.3 300 394.8C320 379.3 340 385.7 360 394C380 402.3 400 412.7 420 423.5C440 434.3 460 445.7 480 439.3C500 433 520 409 540 407.7C560 406.3 580 427.7 600 424.3C620 421 640 393 660 391C680 389 700 413 720 418.7C740 424.3 760 411.7 780 408.2C800 404.7 820 410.3 840 405C860 399.7 880 383.3 890 375.2L900 367L900 601L890 601C880 601 860 601 840 601C820 601 800 601 780 601C760 601 740 601 720 601C700 601 680 601 660 601C640 601 620 601 600 601C580 601 560 601 540 601C520 601 500 601 480 601C460 601 440 601 420 601C400 601 380 601 360 601C340 601 320 601 300 601C280 601 260 601 240 601C220 601 200 601 180 601C160 601 140 601 120 601C100 601 80 601 60 601C40 601 20 601 10 601L0 601Z" fill="#e34c67"></path><path d="M0 516L10 510.2C20 504.3 40 492.7 60 488.8C80 485 100 489 120 491.8C140 494.7 160 496.3 180 487.8C200 479.3 220 460.7 240 459.7C260 458.7 280 475.3 300 491.3C320 507.3 340 522.7 360 521C380 519.3 400 500.7 420 494.7C440 488.7 460 495.3 480 502.3C500 509.3 520 516.7 540 514.5C560 512.3 580 500.7 600 492.8C620 485 640 481 660 473.7C680 466.3 700 455.7 720 449.8C740 444 760 443 780 447.3C800 451.7 820 461.3 840 470C860 478.7 880 486.3 890 490.2L900 494L900 601L890 601C880 601 860 601 840 601C820 601 800 601 780 601C760 601 740 601 720 601C700 601 680 601 660 601C640 601 620 601 600 601C580 601 560 601 540 601C520 601 500 601 480 601C460 601 440 601 420 601C400 601 380 601 360 601C340 601 320 601 300 601C280 601 260 601 240 601C220 601 200 601 180 601C160 601 140 601 120 601C100 601 80 601 60 601C40 601 20 601 10 601L0 601Z" fill="#c62368"></path></svg>